<svg width="275" height="250" viewBox="0 0 275 250" fill="none" xmlns="http://www.w3.org/2000/svg">
<rect width="275" height="250" fill="#F8F9FA"/>
<path d="M74.7025 166.166H72.7405C72.5845 166.814 72.2905 167.342 71.8585 167.75C71.4265 168.158 70.8505 168.362 70.1305 168.362C69.7465 168.362 69.3925 168.296 69.0685 168.164C68.7445 168.02 68.4685 167.828 68.2405 167.588C68.0845 167.42 67.9525 167.24 67.8445 167.048C67.7485 166.844 67.6705 166.598 67.6105 166.31C67.5625 166.01 67.5265 165.644 67.5025 165.212C67.4785 164.78 67.4665 164.24 67.4665 163.592C67.4665 162.944 67.4785 162.404 67.5025 161.972C67.5265 161.54 67.5625 161.18 67.6105 160.892C67.6705 160.592 67.7485 160.346 67.8445 160.154C67.9525 159.95 68.0845 159.764 68.2405 159.596C68.4685 159.356 68.7445 159.17 69.0685 159.038C69.3925 158.894 69.7465 158.822 70.1305 158.822C70.8505 158.822 71.4205 159.026 71.8405 159.434C72.2725 159.842 72.5665 160.37 72.7225 161.018H74.7025C74.4745 159.734 73.9525 158.756 73.1365 158.084C72.3205 157.412 71.3185 157.076 70.1305 157.076C69.4585 157.076 68.8405 157.196 68.2765 157.436C67.7125 157.664 67.2085 158 66.7645 158.444C66.4525 158.756 66.2125 159.086 66.0445 159.434C65.8765 159.782 65.7505 160.16 65.6665 160.568C65.5945 160.976 65.5525 161.432 65.5405 161.936C65.5285 162.428 65.5225 162.98 65.5225 163.592C65.5225 164.204 65.5285 164.762 65.5405 165.266C65.5525 165.758 65.5945 166.208 65.6665 166.616C65.7505 167.024 65.8765 167.402 66.0445 167.75C66.2125 168.098 66.4525 168.428 66.7645 168.74C67.2085 169.184 67.7125 169.526 68.2765 169.766C68.8405 169.994 69.4585 170.108 70.1305 170.108C70.7065 170.108 71.2465 170.024 71.7505 169.856C72.2665 169.688 72.7225 169.436 73.1185 169.1C73.5265 168.764 73.8625 168.35 74.1265 167.858C74.4025 167.366 74.5945 166.802 74.7025 166.166Z" fill="black"/>
<path d="M91.0412 163.592C91.0412 162.98 91.0352 162.428 91.0232 161.936C91.0112 161.432 90.9692 160.976 90.8972 160.568C90.8252 160.16 90.7052 159.782 90.5372 159.434C90.3692 159.086 90.1292 158.756 89.8172 158.444C89.3732 158 88.8692 157.664 88.3052 157.436C87.7412 157.196 87.1172 157.076 86.4332 157.076C85.7492 157.076 85.1252 157.196 84.5612 157.436C84.0092 157.664 83.5112 158 83.0672 158.444C82.7552 158.756 82.5152 159.086 82.3472 159.434C82.1792 159.782 82.0532 160.16 81.9692 160.568C81.8972 160.976 81.8552 161.432 81.8432 161.936C81.8312 162.428 81.8252 162.98 81.8252 163.592C81.8252 164.204 81.8312 164.762 81.8432 165.266C81.8552 165.758 81.8972 166.208 81.9692 166.616C82.0532 167.024 82.1792 167.402 82.3472 167.75C82.5152 168.098 82.7552 168.428 83.0672 168.74C83.5112 169.184 84.0092 169.526 84.5612 169.766C85.1252 169.994 85.7492 170.108 86.4332 170.108C87.1172 170.108 87.7412 169.994 88.3052 169.766C88.8692 169.526 89.3732 169.184 89.8172 168.74C90.1292 168.428 90.3692 168.098 90.5372 167.75C90.7052 167.402 90.8252 167.024 90.8972 166.616C90.9692 166.208 91.0112 165.758 91.0232 165.266C91.0352 164.762 91.0412 164.204 91.0412 163.592ZM89.0972 163.592C89.0972 164.24 89.0852 164.78 89.0612 165.212C89.0492 165.632 89.0132 165.992 88.9532 166.292C88.9052 166.58 88.8272 166.826 88.7192 167.03C88.6232 167.222 88.4972 167.402 88.3412 167.57C88.1132 167.81 87.8312 168.002 87.4952 168.146C87.1712 168.29 86.8172 168.362 86.4332 168.362C86.0492 168.362 85.6892 168.29 85.3532 168.146C85.0292 168.002 84.7532 167.81 84.5252 167.57C84.3692 167.402 84.2372 167.222 84.1292 167.03C84.0332 166.826 83.9552 166.58 83.8952 166.292C83.8472 165.992 83.8112 165.632 83.7872 165.212C83.7752 164.78 83.7692 164.24 83.7692 163.592C83.7692 162.944 83.7752 162.41 83.7872 161.99C83.8112 161.558 83.8472 161.198 83.8952 160.91C83.9552 160.61 84.0332 160.364 84.1292 160.172C84.2372 159.968 84.3692 159.782 84.5252 159.614C84.7532 159.374 85.0292 159.182 85.3532 159.038C85.6892 158.894 86.0492 158.822 86.4332 158.822C86.8172 158.822 87.1712 158.894 87.4952 159.038C87.8312 159.182 88.1132 159.374 88.3412 159.614C88.4972 159.782 88.6232 159.968 88.7192 160.172C88.8272 160.364 88.9052 160.61 88.9532 160.91C89.0132 161.198 89.0492 161.558 89.0612 161.99C89.0852 162.41 89.0972 162.944 89.0972 163.592Z" fill="black"/>
<path d="M110.234 170V157.184H108.29L104.618 165.158L100.874 157.184H98.9299V170H100.874V161.432L103.898 167.678H105.338L108.29 161.432V170H110.234Z" fill="black"/>
<path d="M127.536 161.072C127.536 160.52 127.44 160.004 127.248 159.524C127.056 159.044 126.78 158.636 126.42 158.3C126.06 157.952 125.628 157.682 125.124 157.49C124.62 157.286 124.056 157.184 123.432 157.184H118.572V170H120.516V164.96H123.432C124.056 164.96 124.62 164.864 125.124 164.672C125.628 164.468 126.06 164.198 126.42 163.862C126.78 163.514 127.056 163.106 127.248 162.638C127.44 162.158 127.536 161.636 127.536 161.072ZM125.592 161.072C125.592 161.756 125.382 162.284 124.962 162.656C124.554 163.016 124.008 163.196 123.324 163.196H120.516V158.93H123.324C124.008 158.93 124.554 159.116 124.962 159.488C125.382 159.86 125.592 160.388 125.592 161.072Z" fill="black"/>
<path d="M144.235 170L141.283 164.33C142.003 164.126 142.609 163.742 143.101 163.178C143.593 162.602 143.839 161.852 143.839 160.928C143.839 160.388 143.743 159.89 143.551 159.434C143.371 158.966 143.107 158.57 142.759 158.246C142.411 157.91 141.991 157.652 141.499 157.472C141.019 157.28 140.473 157.184 139.861 157.184H134.893V170H136.837V164.6H139.267L141.967 170H144.235ZM141.895 160.946C141.895 161.582 141.691 162.074 141.283 162.422C140.887 162.77 140.365 162.944 139.717 162.944H136.837V158.93H139.717C140.365 158.93 140.887 159.11 141.283 159.47C141.691 159.818 141.895 160.31 141.895 160.946Z" fill="black"/>
<path d="M161.12 170L156.422 157.184H154.856L150.158 170H152.228L153.11 167.426H158.168L159.05 170H161.12ZM157.628 165.77H153.686L155.684 160.082L157.628 165.77Z" fill="black"/>
<path d="M177.046 163.502C177.046 163.034 177.04 162.572 177.028 162.116C177.028 161.66 176.992 161.216 176.92 160.784C176.848 160.34 176.722 159.92 176.542 159.524C176.362 159.116 176.098 158.738 175.75 158.39C175.342 157.982 174.856 157.682 174.292 157.49C173.728 157.286 173.11 157.184 172.438 157.184H167.938V170H172.438C173.11 170 173.728 169.904 174.292 169.712C174.856 169.508 175.342 169.202 175.75 168.794C176.098 168.446 176.362 168.062 176.542 167.642C176.722 167.222 176.848 166.784 176.92 166.328C176.992 165.872 177.028 165.404 177.028 164.924C177.04 164.444 177.046 163.97 177.046 163.502ZM175.102 163.502C175.102 164.39 175.072 165.17 175.012 165.842C174.952 166.502 174.754 167.018 174.418 167.39C173.89 167.966 173.164 168.254 172.24 168.254H169.882V158.93H172.24C173.164 158.93 173.89 159.218 174.418 159.794C174.754 160.166 174.952 160.658 175.012 161.27C175.072 161.87 175.102 162.614 175.102 163.502Z" fill="black"/>
<path d="M193.674 163.592C193.674 162.98 193.668 162.428 193.656 161.936C193.644 161.432 193.602 160.976 193.53 160.568C193.458 160.16 193.338 159.782 193.17 159.434C193.002 159.086 192.762 158.756 192.45 158.444C192.006 158 191.502 157.664 190.938 157.436C190.374 157.196 189.75 157.076 189.066 157.076C188.382 157.076 187.758 157.196 187.194 157.436C186.642 157.664 186.144 158 185.7 158.444C185.388 158.756 185.148 159.086 184.98 159.434C184.812 159.782 184.686 160.16 184.602 160.568C184.53 160.976 184.488 161.432 184.476 161.936C184.464 162.428 184.458 162.98 184.458 163.592C184.458 164.204 184.464 164.762 184.476 165.266C184.488 165.758 184.53 166.208 184.602 166.616C184.686 167.024 184.812 167.402 184.98 167.75C185.148 168.098 185.388 168.428 185.7 168.74C186.144 169.184 186.642 169.526 187.194 169.766C187.758 169.994 188.382 170.108 189.066 170.108C189.75 170.108 190.374 169.994 190.938 169.766C191.502 169.526 192.006 169.184 192.45 168.74C192.762 168.428 193.002 168.098 193.17 167.75C193.338 167.402 193.458 167.024 193.53 166.616C193.602 166.208 193.644 165.758 193.656 165.266C193.668 164.762 193.674 164.204 193.674 163.592ZM191.73 163.592C191.73 164.24 191.718 164.78 191.694 165.212C191.682 165.632 191.646 165.992 191.586 166.292C191.538 166.58 191.46 166.826 191.352 167.03C191.256 167.222 191.13 167.402 190.974 167.57C190.746 167.81 190.464 168.002 190.128 168.146C189.804 168.29 189.45 168.362 189.066 168.362C188.682 168.362 188.322 168.29 187.986 168.146C187.662 168.002 187.386 167.81 187.158 167.57C187.002 167.402 186.87 167.222 186.762 167.03C186.666 166.826 186.588 166.58 186.528 166.292C186.48 165.992 186.444 165.632 186.42 165.212C186.408 164.78 186.402 164.24 186.402 163.592C186.402 162.944 186.408 162.41 186.42 161.99C186.444 161.558 186.48 161.198 186.528 160.91C186.588 160.61 186.666 160.364 186.762 160.172C186.87 159.968 187.002 159.782 187.158 159.614C187.386 159.374 187.662 159.182 187.986 159.038C188.322 158.894 188.682 158.822 189.066 158.822C189.45 158.822 189.804 158.894 190.128 159.038C190.464 159.182 190.746 159.374 190.974 159.614C191.13 159.782 191.256 159.968 191.352 160.172C191.46 160.364 191.538 160.61 191.586 160.91C191.646 161.198 191.682 161.558 191.694 161.99C191.718 162.41 191.73 162.944 191.73 163.592Z" fill="black"/>
<path d="M210.905 170L207.953 164.33C208.673 164.126 209.279 163.742 209.771 163.178C210.263 162.602 210.509 161.852 210.509 160.928C210.509 160.388 210.413 159.89 210.221 159.434C210.041 158.966 209.777 158.57 209.429 158.246C209.081 157.91 208.661 157.652 208.169 157.472C207.689 157.28 207.143 157.184 206.531 157.184H201.563V170H203.507V164.6H205.937L208.637 170H210.905ZM208.565 160.946C208.565 161.582 208.361 162.074 207.953 162.422C207.557 162.77 207.035 162.944 206.387 162.944H203.507V158.93H206.387C207.035 158.93 207.557 159.11 207.953 159.47C208.361 159.818 208.565 160.31 208.565 160.946Z" fill="black"/>
<path d="M201 98.8C203.2 98.8 205 96.9 204.9 94.7C205 92.5 203.4 90.6 201.2 90.5C199 90.5 197.3 92.4 197.3 94.6C197.1 96.8 198.8 98.7 201 98.8Z" fill="#E30613"/>
<path d="M178.7 142.3C178.5 142.3 178.2 142.3 178 142.3C175.4 142.1 173.1 140.7 171.7 138.6C169.8 135.6 168.6 132.1 168.4 128.6C168 124.6 168.3 120.6 169.3 116.8C167.9 117.4 166.4 117.8 164.8 118C164.7 121.9 164.1 125.7 163.2 129.5C162.6 132.2 161.5 134.7 160.1 137C157.9 140.5 155 142.4 151.8 142.4C149.9 142.4 148 141.7 146.5 140.4C145 139.1 143.9 137.3 143.4 135.3C142.3 137.2 140.8 138.8 139 140C137.1 141.4 134.9 142.2 132.6 142.4C130.3 142.4 127.3 141.2 126 135.7C125.2 137.4 124 138.9 122.6 140.1C121 141.5 118.9 142.2 116.8 142.2C116.6 142.2 116.3 142.2 116.1 142.2C114.9 142.2 113.8 141.6 113.1 140.6C112 139.1 111.5 136.5 111.8 132.9C112 130.2 112.5 127.6 113.1 125C113.2 124.6 113.2 124.3 113.3 124.1C113.9 121.1 115.3 115.6 116 112.9C116.2 112 116.4 111.5 116.4 111.4C114 110.4 111.5 109.7 108.9 109.2C107.9 113.8 106.9 116.6 105.9 117.6C105.5 118 105.1 118.2 104.6 118.2C104.1 118.2 103.6 118 103.3 117.5L102.9 117C102.9 117 102.6 116.8 102.9 116.3C103.9 114.1 104.7 109.2 105.3 105.6C105.5 104.4 105.7 103.3 105.8 102.5C106 101.7 106.7 100.7 108.7 100.7C109 100.7 109.3 100.7 109.6 100.8C110.1 100.8 110.4 101.2 110.4 101.7V101.8C110.4 102.4 110.2 103.4 110 104.9C113.1 105.8 117.2 107.1 117.8 107.3H117.9C118.9 107.6 119.9 108.1 120.7 108.8C122 110 122.4 111.8 121.8 113.5V113.6C121 116.5 118.2 126.4 117.7 131.3C117.4 134.3 117.7 136.5 118.5 137.4C118.8 137.8 119.3 138 119.8 138C121 137.8 122.2 137.2 122.9 136.2C124.1 134.8 125.1 133.2 125.7 131.4C125.7 129.5 125.8 127.6 125.9 126C126 125.2 126 124.5 126 123.9C126 121.6 126.9 107.5 126.9 107.4C126.9 105.5 128.4 104 130.3 104C130.4 104 130.6 104 130.7 104C131.1 104 131.4 104 131.8 104.1H131.9C132.4 104.2 133.4 104.3 133.3 105.3C133.3 105.5 131.9 124.8 131.9 130.1C131.9 136.7 134.1 137.6 135.4 137.6C137.4 137.6 140 135.3 142.4 131.6C141.1 125.2 140.3 118.7 139.9 112.1C139.6 107 139.8 101.9 140.3 96.8C140.7 93 141.6 89.3 142.8 85.7C143.6 83.2 144.9 80.9 146.5 78.8C148 77 149.6 76 151.1 76C152.9 76 154.4 77.5 155.2 80.2C156.5 84.7 157 89.5 156.6 94.2C156.3 99 155.5 103.7 154.4 108.3C152.7 114.7 150.6 121 147.9 127.1C147.6 127.7 147.5 128 147.5 128.1C148.6 134.2 150.8 137.8 153.5 137.8C155.5 137.8 157.5 135.8 159.1 132.4C161 127.8 161.9 122.8 161.8 117.8C160.2 117.8 158.7 117.3 157.4 116.4C156.4 115.6 155.6 114.4 155.3 113.1C155 111.9 155.2 110.7 155.6 109.6C156.1 108.4 157.1 107.5 158.3 107C158.7 106.8 159.1 106.7 159.6 106.7C160.9 106.7 162.1 107.3 162.9 108.2C164.2 109.8 164.9 111.8 164.8 113.8H164.9C167.2 113.7 169.5 112.9 171.3 111.4C172.2 109.2 173.8 107.2 175.7 105.8C177.5 104.4 179.7 103.5 182 103.5C184.3 103.5 186.4 104.5 187.8 106.3C189.6 108.5 190.8 111.7 191.3 116C192.2 115.4 193 114.7 193.7 113.8C195.4 111.9 196.5 109.5 197 107C197.2 105.2 198.8 103.9 200.6 104.1C200.6 104.1 200.6 104.1 200.7 104.1C201.1 104.1 201.6 104.1 202 104.2C202.3 104.2 203.3 104.4 203.2 105.1C203.2 105.1 203.2 105.9 203.1 107.2V107.3C202.9 111.5 202.3 121.3 202 125.7C201.7 131.8 202.2 135.6 203.7 137.2C204.1 137.7 204.7 137.9 205.4 137.9C207.3 137.9 209.4 135.7 209.8 135.1C210.1 135.8 210.5 136.8 210.5 136.8C210.5 136.8 210.9 137.7 210.4 138.2C207.9 140.9 205.4 142.3 203.1 142.3C201.6 142.3 200.1 141.6 199.1 140.5C196.8 138.2 195.6 133.8 195.8 128.5L196.4 114.1C195.1 116.2 193.4 117.9 191.4 119.3C191.6 123 191.2 126.6 190.2 130.2C189.4 133.5 187.8 136.5 185.6 139C183.9 141.1 181.4 142.2 178.7 142.3ZM175.3 118C174.6 121.8 174.5 125.8 174.9 129.7C175.1 132.1 176 134.3 177.4 136.3C178.1 137.3 179.3 137.9 180.5 137.9C182.4 137.9 184.2 136.4 185.6 133.7C186.7 131.5 188 127.6 188.1 121.1C186.6 121.6 185.1 121.8 183.5 121.8C179.8 121.7 176.7 120.3 175.3 118ZM151.1 82.4C149.8 82.7 148.7 84.5 147.8 87.7C146.8 91.4 146.1 95.2 145.8 99C144.9 108 145 117.7 146.1 123.1C148 118.7 149.4 114.1 150.5 109.4C151.4 105.3 152.1 101.2 152.5 97.1C153.2 89.5 152.6 84.1 151.6 82.8C151.5 82.5 151.3 82.4 151.1 82.4ZM182.1 107C180.9 107 179.8 107.5 179 108.4C177.9 109.5 177.3 110.9 177.3 112.4C177.3 114 178.1 115.4 179.5 116.3C181.1 117.4 182.9 117.9 184.8 117.8C185.9 117.8 187 117.6 188.1 117.4C187.8 113.8 187.1 111.1 185.9 109.3C185.1 107.9 183.7 107.1 182.1 107ZM159.7 109C159 109 158.3 110 158.3 111.1C158.3 111.8 158.6 112.4 159 112.8C159.8 113.4 160.7 113.7 161.7 113.6C161.7 113.6 162 110.7 160.9 109.5C160.6 109.2 160.1 109 159.7 109Z" fill="#E30613"/>
<path d="M93.4 100.5C94.8 86.1999 98.6 85.7999 98.6 85.7999C98.7 85.7999 112.6 86.6999 116.5 77.6999C116.7 77.2999 116.8 76.5999 115.6 76.3999C106.7 83.3999 91.2 76.0999 76.3 77.9999C69.9 78.5999 65 83.8999 65 90.2999C65 103.9 82.9 104.2 82.9 99.9999L82.8 98.0999L82.1 98.3999C77 100.5 71.5 97.9999 71.5 91.8999C71.5 83.1999 82.7 85.1999 94.2 85.6999C90 89.2999 86.8 93.7999 86.3 104.9C84.7 105.9 81.7 107.8 80.2 109C80 109.1 80 109.3 80 109.5C80 109.5 80.5 111.8 80.8 112.9C81.7 112.4 84.7 110.3 85.9 109.4C84.5 123.6 84.4 138.9 77.7 138.9C74.3 138.9 70.2 130.8 76.3 119.9C76.5 119.4 76.6 118.7 76.5 118.1C76.2 117.2 75.4 114.1 75.4 114.1C64.2 124.6 65.3 142.3 78.3 142.3C93.5 142.3 92.5 111.6 93.2 104.4C93.9 104.1 94.6 103.9 95.4 103.8C95.5 106.1 97.4 107.9 99.7 107.9C102 107.8 103.8 106 103.8 103.7C103.8 97.2999 95.1 99.8999 93.4 100.5Z" fill="#E30613"/>
<path d="M130.7 98.8C132.9 98.8 134.7 96.9 134.6 94.7C134.7 92.5 133.1 90.6 130.9 90.5C128.7 90.5 127 92.4 127 94.6C126.9 96.8 128.5 98.7 130.7 98.8Z" fill="#E30613"/>
</svg>
